<?xml version="1.0" encoding="UTF-8" standalone="no"?>
<!-- Created with Inkscape (http://www.inkscape.org/) -->

<svg
   xmlns:dc="http://purl.org/dc/elements/1.1/"
   xmlns:cc="http://creativecommons.org/ns#"
   xmlns:rdf="http://www.w3.org/1999/02/22-rdf-syntax-ns#"
   xmlns:svg="http://www.w3.org/2000/svg"
   xmlns="http://www.w3.org/2000/svg"
   xmlns:xlink="http://www.w3.org/1999/xlink"
   xmlns:sodipodi="http://sodipodi.sourceforge.net/DTD/sodipodi-0.dtd"
   xmlns:inkscape="http://www.inkscape.org/namespaces/inkscape"
   width="1024"
   height="1024"
   id="svg2"
   version="1.1"
   inkscape:version="0.48.2 r9819"
   sodipodi:docname="ico-tree.svg"
   style="enable-background:new">
  <defs
     id="defs4">
    <linearGradient
       id="linearGradient3900">
      <stop
         style="stop-color:#caa140;stop-opacity:1;"
         offset="0"
         id="stop3902" />
      <stop
         style="stop-color:#784421;stop-opacity:1;"
         offset="1"
         id="stop3904" />
    </linearGradient>
    <linearGradient
       id="linearGradient3892">
      <stop
         style="stop-color:#dd4800;stop-opacity:1;"
         offset="0"
         id="stop3894" />
      <stop
         style="stop-color:#ff9650;stop-opacity:0.85585588;"
         offset="1"
         id="stop3896" />
    </linearGradient>
    <linearGradient
       id="linearGradient3810">
      <stop
         style="stop-color:#ffccaa;stop-opacity:1;"
         offset="0"
         id="stop3812" />
      <stop
         style="stop-color:#ff8e43;stop-opacity:1;"
         offset="1"
         id="stop3814" />
    </linearGradient>
    <linearGradient
       inkscape:collect="always"
       xlink:href="#linearGradient3892"
       id="linearGradient3898"
       x1="-149.811"
       y1="690.84216"
       x2="263.95825"
       y2="723.85077"
       gradientUnits="userSpaceOnUse" />
  </defs>
  <sodipodi:namedview
     id="base"
     pagecolor="#ffffff"
     bordercolor="#666666"
     borderopacity="1.0"
     inkscape:pageopacity="0.0"
     inkscape:pageshadow="2"
     inkscape:zoom="0.175"
     inkscape:cx="1761.7733"
     inkscape:cy="159.3553"
     inkscape:document-units="px"
     inkscape:current-layer="layer4"
     showgrid="false"
     inkscape:window-width="1585"
     inkscape:window-height="750"
     inkscape:window-x="508"
     inkscape:window-y="215"
     inkscape:window-maximized="0" />
  <metadata
     id="metadata7">
    <rdf:RDF>
      <cc:Work
         rdf:about="">
        <dc:format>image/svg+xml</dc:format>
        <dc:type
           rdf:resource="http://purl.org/dc/dcmitype/StillImage" />
        <dc:title />
      </cc:Work>
    </rdf:RDF>
  </metadata>
  <g
     inkscape:groupmode="layer"
     id="layer4"
     inkscape:label="icon"
     transform="translate(0,24)">
    <path
       sodipodi:type="arc"
       style="fill:#000000;fill-opacity:1;fill-rule:nonzero;stroke:none"
       id="path3021"
       sodipodi:cx="497.14285"
       sodipodi:cy="502.85715"
       sodipodi:rx="497.14285"
       sodipodi:ry="497.14285"
       d="m 994.28571,502.85715 a 497.14285,497.14285 0 1 1 -994.28571,0 497.14285,497.14285 0 1 1 994.28571,0 z"
       transform="matrix(1.0042232,0,0,1.0042232,13.9438,-17.309847)" />
  </g>
  <g
     inkscape:label="tree"
     inkscape:groupmode="layer"
     id="layer1"
     transform="translate(0,-28.362183)"
     style="display:inline">
    <path
       style="fill:#ffffff;fill-opacity:1;stroke:none;display:inline"
       d="m 91.173638,703.36475 c 0,0 142.932352,-61.25671 265.445802,-69.76459 122.51344,-8.50787 93.58666,15.31418 146.3355,20.41892 52.74883,5.10471 49.34569,-28.92679 132.72289,-3.40316 83.37721,25.52364 168.45596,98.69138 270.5505,91.88506 102.09447,-6.80628 -190.57643,79.97405 -228.01111,83.37721 -37.43466,3.40316 -229.7127,62.95831 -376.0482,45.9426 C 155.83352,854.80493 91.173638,703.36475 91.173638,703.36475 z"
       id="path3038"
       inkscape:connector-curvature="0" />
    <path
       style="fill:#ffffff;fill-opacity:1;stroke:none;display:inline"
       d="m 265.93967,687.13452 c 0,0 85.42689,-158.82181 214.16883,-221.38799 128.74194,-62.56618 167.24419,-42.11185 211.76243,-116.70998 44.51824,-74.59813 13.23515,12.03197 -9.62556,31.28309 -22.86072,19.25113 -66.17577,49.33103 -140.77389,81.81731 -74.59814,32.48628 -170.85378,123.92914 -184.08894,222.59117 -13.23516,98.66212 -91.44287,2.4064 -91.44287,2.4064 z"
       id="path3004"
       inkscape:connector-curvature="0" />
    <path
       style="fill:#ffffff;stroke:none;display:inline"
       d="m 679.68354,287.79627 -8.42237,-21.05594 0,-33.68945 c 0,0 13.83675,19.25112 13.83675,15.03994 0,-4.21118 -15.03994,-29.4783 -15.03994,-29.4783 l 11.43036,6.01599 -10.82877,-19.25114 6.01598,-10.22716 10.22716,22.86073 -6.61758,-31.8847 7.82079,-13.23515 6.01596,-0.6016 4.8128,2.4064 7.21916,16.84472 -8.42236,17.44634 12.03196,-12.63354 3.60958,12.63354 15.03994,-10.82875 10.22717,-3.00799 9.62556,4.81277 10.22716,13.83676 -19.85272,3.60959 29.47829,7.21918 4.21119,13.23514 -30.0799,2.40639 28.2751,7.21918 -6.61757,10.82876 -2.4064,12.03195 -26.4703,-7.21917 26.4703,13.83676 0.60161,7.21915 6.01597,0 3.60958,6.61759 -16.24313,7.21917 19.25112,-3.60958 11.43037,-6.61758 13.23519,-1.80479 30.07988,9.02396 -5.41438,9.62557 -16.24315,-5.41439 9.62556,10.82877 -16.24315,-9.62555 -13.83676,-0.60162 27.07195,13.83674 15.03993,15.64156 7.82074,27.6735 -3.00795,7.82076 -16.24316,-33.68946 1.80474,28.87669 -16.84468,-7.21917 -7.82081,-31.8847 -3.00796,30.68151 -21.65754,-9.62557 -16.84474,-5.41438 -28.27509,-6.61759 -28.8767,-12.03194 z"
       id="path3034"
       inkscape:connector-curvature="0"
       sodipodi:nodetypes="cccsccccccccccccccccccccccccccccccccccccccccccccccccccccc" />
    <path
       style="fill:#ffffff;stroke:none;display:inline"
       d="m 575.60711,403.90466 10.82878,5.41438 11.43035,-1.8048 13.83675,-37.29906 -7.21917,36.09586 8.42237,-4.21118 10.82877,-3.60958 6.61757,0.60159 c 0,0 20.45431,-6.61757 22.8607,-7.82077 2.40639,-1.20319 25.8687,-16.24314 25.8687,-16.24314 l 22.25913,-21.05592 30.68149,-27.67351 -33.08787,-27.67349 -34.29108,-25.86871 -29.4783,-10.82876 -20.45432,2.40638 -21.05593,9.02397 -13.23515,17.44634 11.43035,2.4064 -7.21917,4.21118 -2.40639,11.43036 -21.05592,19.85272 9.02396,7.21917 15.64154,4.81278 16.84476,-19.25112 -9.02399,19.25112 16.24316,1.20321 18.04792,-14.43836 -7.82076,12.63357 15.64153,-1.2032 6.61757,-10.22717 -3.00797,21.65753 -30.68148,12.63355 -17.44634,12.03196 -13.23516,21.05591 z"
       id="path3036"
       inkscape:connector-curvature="0"
       sodipodi:nodetypes="ccccccccsccccccccccccccccccccccccccc" />
    <path
       style="fill:#ffffff;stroke:none;display:inline"
       d="m 673.66756,384.05193 3.6096,19.85273 15.03992,-7.82079 -16.24312,19.25113 7.82077,9.62557 11.43035,-10.22717 -5.41438,15.64155 11.43036,16.24314 -11.43036,36.09588 9.02398,1.8048 7.21916,-24.06392 -1.80477,28.27508 4.81277,2.40641 4.81278,-48.72943 6.01597,-4.81277 -4.81277,-15.64156 10.22716,10.82877 -8.42237,-32.48629 24.0639,39.10386 -4.21119,-26.4703 -9.02396,-30.07989 -9.62556,-22.86072 9.02398,16.24314 10.22716,-9.02396 -6.01598,18.04792 9.62555,14.43836 10.82877,-19.25113 -5.41439,28.27509 13.23515,18.04794 18.04795,0 13.83675,-7.82076 -12.03197,-25.26713 12.03197,12.03196 -7.2192,-17.44633 -13.83673,-16.84474 -38.50226,-23.46232 12.63354,3.00799 -5.41436,-13.23515 19.25112,19.25113 25.86869,6.01598 -6.01595,-16.24314 17.44633,22.86072 17.44636,9.62557 -1.80482,-10.82877 11.43038,19.25114 6.61759,-14.43837 -27.07192,-34.29106 -21.05591,-8.42237 -19.25115,-3.60958 -32.4863,1.80478 -34.29107,12.63356 z"
       id="path3032"
       inkscape:connector-curvature="0" />
  </g>
</svg>
